<?xml version="1.0" encoding="utf-8"?>
<!-- Generator: Adobe Illustrator 23.0.2, SVG Export Plug-In . SVG Version: 6.00 Build 0)  -->
<svg version="1.1" id="Layer_1" xmlns="http://www.w3.org/2000/svg" xmlns:xlink="http://www.w3.org/1999/xlink" x="0px" y="0px"
	 viewBox="0 0 256 256" style="enable-background:new 0 0 256 256;" xml:space="preserve">
<style type="text/css">
	.st0{fill:#997D4E;}
	.st1{fill:url(#SVGID_1_);}
</style>
<g>
	<g>
		<g>
			<polygon class="st0" points="232.6,167.2 199.1,167.2 196.8,167.2 195.5,167.2 190.9,167.2 189.7,167.2 153.8,167.2 153.5,167.2 
				153.5,172.4 153.5,182.3 153.5,188.5 153.5,198.4 153.5,209 153.5,231.9 232.9,231.9 232.9,167.2 			"/>
			<polygon class="st0" points="232.5,161.2 222,132.5 196.8,132.5 196.8,159.8 196.8,161.2 196.8,161.4 199.1,161.4 232.6,161.4 
							"/>
			<polygon class="st0" points="189.7,132.5 164.4,132.5 164.1,133.5 162.7,137.2 161.3,140.9 159.9,144.9 158.6,148.3 157.1,152.3 
				155.9,155.8 154.4,159.8 153.9,161.2 153.8,161.4 189.7,161.4 190.9,161.4 190.9,161.2 190.9,132.5 			"/>
		</g>
	</g>
	<linearGradient id="SVGID_1_" gradientUnits="userSpaceOnUse" x1="141.0553" y1="237.6718" x2="141.0553" y2="35.8531">
		<stop  offset="0" style="stop-color:#A6A6A6"/>
		<stop  offset="1" style="stop-color:#FFFFFF"/>
	</linearGradient>
	<path class="st1" d="M238.1,159.4l-10.6-28.9l-1.4-3.8H222h-25.2h-0.9c-0.2-10.2-0.7-20.2-1.3-29.4l9-3.8h8.9c1.3,0,2.3-1,2.3-2.3
		V66.5c0-1.3-1-2.3-2.3-2.3h-9.1c-0.1,0-0.2,0-0.3,0l-12-4.9c-1-7.3-1.9-12.5-2.7-14.7c-3-8.6-12.8-8.8-12.8-8.8h-47h-1.3h-47
		c0,0-9.7,0.2-12.8,8.8c-0.8,2.2-1.7,7.3-2.7,14.7l-12,4.9c-0.1,0-0.2,0-0.3,0h-9.1c-1.3,0-2.3,1-2.3,2.3v24.6c0,1.3,1,2.3,2.3,2.3
		h8.9l9,3.8c-1.2,19-1.9,41-1.2,62.5h-3.2v39.7c0,0,0,6,3.5,9.5h0.2v7.9c0,1.8,1.5,3.2,3.2,3.2h17.9c1.8,0,3.2-1.5,3.2-3.2V209h42.4
		h1.3h19.1v22.8v5.8h5.8h79.3h5.8v-5.8v-64.6h2.3L238.1,159.4z M196.8,161.2v-1.4v-27.3H222l10.5,28.7l0.1,0.3h-33.5h-2.3V161.2z
		 M201.2,66.4C201.2,66.4,201.2,66.4,201.2,66.4l0,24.7c0,0.1,0,0.2,0,0.4l-6.7,2.9c-0.8-12.3-1.9-23.3-3-31.8L201.2,66.4z
		 M61.5,94.3l-6.7-2.9c0-0.1,0-0.2,0-0.4V66.5c0,0,0-0.1,0-0.1l9.7-3.9C63.4,71,62.4,82,61.5,94.3z M79.2,200.7H72h-2.1h-5.1
		c-1.3,0-2.3-1-2.3-2.3v-22.8c0-1.3,1-2.3,2.3-2.3H72c1,0,1.9,0.7,2.2,1.6c0,0,0,0,0,0.1l6,19.3l1.3,4.2
		C81.5,199.7,80.5,200.7,79.2,200.7z M75.2,112.6c-10.7,0-10.7-9.5-10.7-9.5s1.5-35,1.7-37.7c0.2-2.7,2.6-3,2.6-3h58.7h1.3h58.7
		c0,0,2.4,0.4,2.6,3c0.2,2.7,1.7,37.7,1.7,37.7s0,9.5-10.7,9.5c-8.4,0-39.4,0-52.2,0c-0.4,0-0.8,0-1.3,0
		C114.5,112.6,83.6,112.6,75.2,112.6z M158.6,148.3l1.3-3.4l1.5-4l1.4-3.7l1.4-3.7l0.4-1h25.2h1.3v27.3v1.4v0.3h-1.3h-35.9l0.1-0.3
		l0.5-1.4l1.5-4l1.3-3.4L158.6,148.3z M147.7,198.4c-6.5,0-13.7,0-19.1,0c-0.4,0-0.8,0-1.3,0c-12.4,0-34.4,0-35.9,0
		c-2,0-2.4-1.4-2.4-1.4s-1.7-3.9-1.7-6.5c0-2.1,2.5-2,2.5-2h37.4h1.3h19.1V198.4z M147.7,182.3c-7.5,0-15,0-19.1,0
		c-0.4,0-0.8,0-1.3,0c-9.9,0-39.2,0-40.9,0c-2,0-2.4-1.4-2.4-1.4s-1.7-3.9-1.7-6.5c0-2.1,2.5-2,2.5-2h42.5h1.3h19.1V182.3z
		 M153.1,146.3l-1.5,4l-1.3,3.4l-1.5,4l-0.5,1.4l-0.2,0.6h0h-7.9h-11.7h-1.3H93.6l-4-4h37.8h1.3h21l1.3-3.4h-22.3h-1.3H93.6l-4-4
		h37.8h1.3h23.8l1.3-3.4h-25h-1.3H93.6l-4-4h37.8h1.3h26.5l1.3-3.4h-27.8h-1.3H93.6l-4-4h37.8h1.3h29.2l-0.6,1.7l-1.4,3.7l-1.5,4
		L153.1,146.3z M232.9,231.9h-79.3V209v-10.6v-9.9v-6.2v-9.9v-5.1h0.3h35.9h1.3h4.5h1.3h2.3h33.5h0.3V231.9z"/>
</g>
</svg>
