<?xml version="1.0" encoding="utf-8"?>
<!-- Generator: Adobe Illustrator 23.0.3, SVG Export Plug-In . SVG Version: 6.00 Build 0)  -->
<svg version="1.1" id="Layer_1" xmlns="http://www.w3.org/2000/svg" xmlns:xlink="http://www.w3.org/1999/xlink" x="0px" y="0px"
	 viewBox="0 0 192 192" style="enable-background:new 0 0 192 192;" xml:space="preserve">
<style type="text/css">
	.st0{opacity:0.2;fill:#00FFFF;}
	.st1{fill:none;stroke:#000000;stroke-width:2;stroke-linecap:round;stroke-linejoin:round;stroke-miterlimit:10;}
	.st2{fill:none;stroke:#000000;stroke-linecap:round;stroke-miterlimit:10;}
	.st3{fill:none;stroke:#000000;stroke-miterlimit:10;}
	.st4{fill:none;stroke:#000000;stroke-linecap:round;stroke-linejoin:round;stroke-miterlimit:10;}
	.st5{fill:none;stroke:#000000;stroke-width:2;stroke-miterlimit:10;}
	.st6{opacity:0.2;fill:#FFFFFF;}
	.st7{fill:#333333;}
	.st8{fill:url(#SVGID_1_);}
	.st9{fill:none;}
	.st10{fill:#4E85BD;}
	.st11{fill:url(#SVGID_2_);}
	.st12{fill:#997D4E;}
	.st13{fill:url(#SVGID_3_);}
	.st14{fill:#4EBFBB;}
	.st15{fill:url(#SVGID_4_);}
	.st16{fill:#CE7676;}
	.st17{fill:#FFFFFF;}
	.st18{fill:#F0AF03;}
	.st19{fill:url(#SVGID_5_);}
	.st20{fill:url(#SVGID_6_);}
	.st21{fill:url(#SVGID_7_);}
	.st22{fill:#0B2972;}
	.st23{fill:url(#SVGID_8_);}
	.st24{fill:#DB4912;}
	.st25{fill:url(#SVGID_9_);}
	.st26{fill:url(#SVGID_10_);}
	.st27{fill:url(#SVGID_11_);}
	.st28{fill:url(#SVGID_12_);}
	.st29{fill:url(#SVGID_13_);}
	.st30{fill:url(#SVGID_14_);}
	.st31{fill:url(#SVGID_15_);}
	.st32{fill:url(#SVGID_16_);}
	.st33{fill:url(#SVGID_17_);}
	.st34{fill:url(#SVGID_18_);}
	.st35{opacity:0.2;fill:#0B2972;}
	.st36{opacity:0.3;fill:#818286;}
	.st37{fill:#818286;}
	.st38{opacity:0.3;fill:#0B2972;}
	.st39{opacity:0.3;fill:#997D4E;}
	.st40{opacity:0.3;fill:#BCBDC1;}
	.st41{fill:#BCBDC1;}
	.st42{opacity:0.3;fill:#DCDDDF;}
	.st43{fill:#DCDDDF;}
	.st44{opacity:0.3;fill:#10184A;}
	.st45{fill:#10184A;}
	.st46{opacity:0.3;fill:#63522F;}
	.st47{fill:#63522F;}
</style>
<circle class="st36" cx="96" cy="96" r="96"/>
<circle class="st37" cx="96" cy="96" r="72.6"/>
<g>
	<polygon class="st17" points="126.1,72.8 96,53.5 65.9,72.8 43.5,87.5 43.5,99.2 84.1,72.8 96,65.2 107.9,72.8 148.5,99.2 
		148.5,87.5 	"/>
	<polygon class="st17" points="141.3,98.5 98.4,71 96,69.5 93.6,71 50.7,98.5 48.7,99.8 48.7,110.8 48.7,122.5 48.7,126.5 
		48.7,128.6 48.7,138.5 68.5,138.5 68.5,106.3 123.5,106.3 123.5,138.5 143.3,138.5 143.3,128.6 143.3,126.5 143.3,122.5 
		143.3,110.8 143.3,99.8 	"/>
	<g>
		<rect x="71.6" y="109.9" class="st17" width="48.9" height="2.8"/>
		<rect x="71.6" y="116.4" class="st17" width="48.9" height="2.8"/>
		<rect x="71.6" y="122.8" class="st17" width="48.9" height="2.8"/>
		<rect x="71.6" y="129.3" class="st17" width="48.9" height="2.8"/>
		<rect x="71.6" y="135.7" class="st17" width="48.9" height="2.8"/>
	</g>
</g>
</svg>
