<?xml version="1.0" encoding="utf-8"?>
<!-- Generator: Adobe Illustrator 23.0.2, SVG Export Plug-In . SVG Version: 6.00 Build 0)  -->
<svg version="1.1" id="Layer_1" xmlns="http://www.w3.org/2000/svg" xmlns:xlink="http://www.w3.org/1999/xlink" x="0px" y="0px"
	 viewBox="0 0 192 192" style="enable-background:new 0 0 192 192;" xml:space="preserve">
<style type="text/css">
	.st0{opacity:0.2;fill:#00FFFF;}
	.st1{fill:none;stroke:#000000;stroke-width:2;stroke-linecap:round;stroke-linejoin:round;stroke-miterlimit:10;}
	.st2{fill:none;stroke:#000000;stroke-linecap:round;stroke-miterlimit:10;}
	.st3{fill:none;stroke:#000000;stroke-miterlimit:10;}
	.st4{fill:none;stroke:#000000;stroke-linecap:round;stroke-linejoin:round;stroke-miterlimit:10;}
	.st5{fill:none;stroke:#000000;stroke-width:2;stroke-miterlimit:10;}
	.st6{opacity:0.2;fill:#FFFFFF;}
	.st7{fill:#333333;}
	.st8{fill:url(#SVGID_1_);}
	.st9{fill:none;}
	.st10{fill:#4E85BD;}
	.st11{fill:url(#SVGID_2_);}
	.st12{fill:#997D4E;}
	.st13{fill:url(#SVGID_3_);}
	.st14{fill:#4EBFBB;}
	.st15{fill:url(#SVGID_4_);}
	.st16{fill:#CE7676;}
	.st17{fill:#FFFFFF;}
	.st18{fill:#F0AF03;}
	.st19{fill:url(#SVGID_5_);}
	.st20{fill:url(#SVGID_6_);}
	.st21{fill:url(#SVGID_7_);}
	.st22{fill:#0B2972;}
	.st23{fill:url(#SVGID_8_);}
	.st24{fill:#DB4912;}
	.st25{fill:url(#SVGID_9_);}
	.st26{fill:url(#SVGID_10_);}
	.st27{fill:url(#SVGID_11_);}
	.st28{fill:url(#SVGID_12_);}
	.st29{fill:url(#SVGID_13_);}
	.st30{fill:url(#SVGID_14_);}
	.st31{fill:url(#SVGID_15_);}
	.st32{fill:url(#SVGID_16_);}
	.st33{fill:url(#SVGID_17_);}
	.st34{fill:url(#SVGID_18_);}
	.st35{opacity:0.2;fill:#0B2972;}
	.st36{opacity:0.2;fill:#818286;}
	.st37{fill:#818286;}
	.st38{opacity:0.2;fill:#BCBDC1;}
	.st39{fill:#BCBDC1;}
	.st40{opacity:0.2;fill:#10184A;}
	.st41{fill:#10184A;}
	.st42{opacity:0.2;fill:#63522F;}
	.st43{fill:#63522F;}
	.st44{opacity:0.2;fill:#997D4E;}
</style>
<path class="st37" d="M173.1,35h-8.3c-0.1,0-0.2,0-0.3,0l-11.1-4.5c-0.9-6.7-1.8-11.5-2.5-13.5C148.2,9.2,139.2,9,139.2,9H96h-1.2
	H51.7c0,0-9,0.2-11.7,8.1c-0.7,2-1.6,6.7-2.5,13.5l-11.1,4.5c-0.1,0-0.2,0-0.3,0h-8.3c-1.2,0-2.1,1-2.1,2.1v22.6
	c0,1.2,1,2.1,2.1,2.1h8.1l8.3,3.5c-1.1,17.5-1.7,37.7-1.1,57.5h-3v36.5c0,0,0,5.5,3.2,8.7h0.2v7.3c0,1.6,1.3,3,3,3H53
	c1.6,0,3-1.3,3-3v-7.3h38.9H96h38.9v7.3c0,1.6,1.3,3,3,3h16.5c1.6,0,3-1.3,3-3v-7.3h0.2c3.2-3.2,3.2-8.7,3.2-8.7v-36.5h-3
	c0.6-19.8,0-40-1.1-57.5l8.3-3.5h8.1c1.2,0,2.1-1,2.1-2.1V37.2C175.3,36,174.3,35,173.1,35z M34.4,62.8l-6.2-2.6c0-0.1,0-0.2,0-0.3
	V37.2c0,0,0-0.1,0-0.1l8.9-3.6C36.1,41.3,35.1,51.4,34.4,62.8z M52.7,158.4c0,1.2-1,2.1-2.1,2.1H44H42h-4.6c-1.2,0-2.1-1-2.1-2.1
	v-21c0-1.2,1-2.1,2.1-2.1H44c0.9,0,1.7,0.6,2,1.4c0,0,0,0,0,0.1l5.5,17.7L52.7,158.4L52.7,158.4z M131.1,157.1c0,0-0.3,1.3-2.2,1.3
	c-1.3,0-21.6,0-32.9,0c-0.4,0-0.8,0-1.2,0c-11.4,0-31.6,0-32.9,0c-1.9,0-2.2-1.3-2.2-1.3s-1.5-3.6-1.5-6c0-1.9,2.3-1.8,2.3-1.8h34.3
	H96h34.3c0,0,2.3-0.1,2.3,1.8C132.7,153.5,131.1,157.1,131.1,157.1z M135.8,142.3c0,0-0.3,1.3-2.2,1.3c-1.6,0-28.5,0-37.6,0
	c-0.3,0-0.7,0-1.2,0c-9.1,0-36.1,0-37.6,0c-1.9,0-2.2-1.3-2.2-1.3s-1.5-3.6-1.5-6c0-1.9,2.3-1.8,2.3-1.8h39H96h39
	c0,0,2.3-0.1,2.3,1.8C137.3,138.7,135.8,142.3,135.8,142.3z M94.8,105.5H96h34.7l-3.7,3.7H96h-1.2h-31l-3.7-3.7H94.8z M60.1,98.7
	h34.7H96h34.7l-3.7,3.7H96h-1.2h-31L60.1,98.7z M94.8,112.4H96h34.7l-3.7,3.7H96h-1.2h-31l-3.7-3.7H94.8z M94.8,119.2H96h34.7
	l-3.7,3.7H96h-1.2h-31l-3.7-3.7H94.8z M96,79.6c-0.4,0-0.8,0-1.2,0c-11.8,0-40.2,0-48,0c-9.8,0-9.8-8.7-9.8-8.7s1.4-32.2,1.5-34.6
	c0.1-2.4,2.3-2.8,2.3-2.8h53.9H96h53.9c0,0,2.2,0.3,2.3,2.8c0.1,2.4,1.5,34.6,1.5,34.6s0,8.7-9.8,8.7C136.3,79.6,107.8,79.6,96,79.6
	z M155.6,158.4c0,1.2-1,2.1-2.1,2.1h-4.6h-1.9h-6.6c-1.2,0-2.1-1-2.1-2.1v0l1.2-3.9l5.5-17.7c0,0,0,0,0-0.1c0.3-0.8,1.1-1.4,2-1.4
	h6.6c1.2,0,2.1,1,2.1,2.1V158.4z M156.5,62.8c-0.8-11.3-1.7-21.4-2.7-29.3l8.9,3.6c0,0,0,0.1,0,0.1v22.6c0,0.1,0,0.2,0,0.3
	L156.5,62.8z"/>
</svg>
