<?xml version="1.0" encoding="utf-8"?>
<!-- Generator: Adobe Illustrator 23.0.2, SVG Export Plug-In . SVG Version: 6.00 Build 0)  -->
<svg version="1.1" id="Layer_1" xmlns="http://www.w3.org/2000/svg" xmlns:xlink="http://www.w3.org/1999/xlink" x="0px" y="0px"
	 viewBox="0 0 256 256" style="enable-background:new 0 0 256 256;" xml:space="preserve">
<style type="text/css">
	.st0{fill:#997D4E;}
	.st1{fill:url(#SVGID_1_);}
</style>
<g>
	<g>
		<path class="st0" d="M51.2,199.5v-34.8l-27.9,67.6h17.5L52,205.1C51.2,202.3,51.2,200,51.2,199.5z"/>
		<path class="st0" d="M205,164.9v34.6c0,0.5-0.1,2.8-0.8,5.7l11.2,27.1h17.5L205,164.9z"/>
		<linearGradient id="SVGID_1_" gradientUnits="userSpaceOnUse" x1="128.0455" y1="238.0677" x2="128.0455" y2="35.8688">
			<stop  offset="0" style="stop-color:#A6A6A6"/>
			<stop  offset="1" style="stop-color:#FFFFFF"/>
		</linearGradient>
		<path class="st1" d="M238.2,230l-27.8-67.4l-14.3-34c-0.2-10.9-0.7-21.6-1.3-31.4l9-3.8h8.9c1.3,0,2.3-1,2.3-2.3V66.5
			c0-1.3-1-2.3-2.3-2.3h-9.1c-0.1,0-0.2,0-0.3,0l-12-4.9c-1-7.3-1.9-12.5-2.7-14.7c-3-8.6-12.8-8.8-12.8-8.8h-47h-1.3h-47
			c0,0-9.7,0.2-12.8,8.8C66.9,46.9,66,52,65,59.3l-12,4.9c-0.1,0-0.2,0-0.3,0h-9.1c-1.3,0-2.3,1-2.3,2.3v24.6c0,1.3,1,2.3,2.3,2.3
			h8.9l9,3.8c-0.6,9.3-1,19.3-1.2,29.6l-14.4,35.6L17.9,230l-3.3,8h8.7h17.5h3.9l1.5-3.6l11.2-27.2l0.7-1.8l-0.4-1.6
			c0.5,1.8,1.3,3.7,2.8,5.2h0.2v7.9c0,1.8,1.5,3.2,3.2,3.2h17.9c1.8,0,3.2-1.5,3.2-3.2V209h42.4h1.3h42.4v7.9c0,1.8,1.5,3.2,3.2,3.2
			h17.9c1.8,0,3.2-1.5,3.2-3.2V209h0.2c1.5-1.5,2.4-3.6,2.9-5.4c0,0,0,0,0,0l-0.5,1.9l0.8,1.8l11.2,27.1l1.5,3.6h3.9h17.5h8.7
			L238.2,230z M201.3,66.4C201.3,66.4,201.3,66.5,201.3,66.4l0,24.7c0,0.1,0,0.2,0,0.4l-6.7,2.9c-0.8-12.3-1.9-23.3-3-31.8
			L201.3,66.4z M54.9,91.5c0-0.1,0-0.2,0-0.4V66.5c0,0,0-0.1,0-0.1l9.7-3.9c-1.1,8.5-2.1,19.5-3,31.8L54.9,91.5z M40.8,232.2H23.3
			l27.9-67.6v34.8c0,0.4,0.1,2.8,0.8,5.6L40.8,232.2z M79.3,200.7h-7.2H70h-5.1c-1.3,0-2.3-1-2.3-2.3v-19.1v-3.7
			c0-1.3,1-2.3,2.3-2.3h0.2h7c1,0,1.9,0.7,2.2,1.6c0,0,0,0,0,0.1l6,19.3l1.3,4.2C81.6,199.7,80.6,200.7,79.3,200.7z M166.9,197
			c0,0-0.3,1.4-2.4,1.4c-1.5,0-23.5,0-35.9,0c-0.4,0-0.8,0-1.3,0c-12.4,0-34.4,0-35.9,0c-2,0-2.4-1.4-2.4-1.4s-1.7-3.9-1.7-6.5
			c0-0.5,0.2-0.9,0.4-1.1c0.1-0.1,0.2-0.2,0.3-0.2c0.2-0.1,0.3-0.3,0.5-0.4c0.1-0.1,0.2-0.1,0.4-0.1c0.2,0,0.3-0.1,0.5-0.1
			c0.1,0,0.2,0,0.3,0c0,0,0.1,0,0.1,0c0.1,0,0.1,0,0.1,0h37.4h1.3h37.4c0,0,0,0,0.1,0c0,0,0.1,0,0.1,0c0.1,0,0.2,0,0.3,0
			c0.1,0,0.3,0.1,0.5,0.1c0.1,0,0.2,0.1,0.4,0.1c0.2,0.1,0.4,0.2,0.5,0.4c0.1,0.1,0.2,0.1,0.3,0.2c0.2,0.3,0.4,0.6,0.4,1.1
			C168.6,193.1,166.9,197,166.9,197z M172,180.9c0,0-0.3,1.4-2.4,1.4c-1.7,0-31,0-40.9,0c-0.4,0-0.8,0-1.3,0c-9.9,0-39.2,0-40.9,0
			c-2,0-2.4-1.4-2.4-1.4s-1.7-3.9-1.7-6.5c0-0.5,0.2-0.9,0.4-1.1c0.1-0.1,0.2-0.2,0.3-0.2c0.2-0.1,0.3-0.3,0.5-0.4
			c0.1-0.1,0.2-0.1,0.4-0.1c0.2,0,0.3-0.1,0.5-0.1c0.1,0,0.2,0,0.3,0c0,0,0.1,0,0.1,0c0.1,0,0.1,0,0.1,0h42.5h1.3h42.5
			c0,0,0,0,0.1,0c0,0,0.1,0,0.1,0c0.1,0,0.2,0,0.3,0c0.1,0,0.3,0.1,0.5,0.1c0.1,0,0.2,0.1,0.4,0.1c0.2,0.1,0.4,0.2,0.5,0.4
			c0.1,0.1,0.2,0.1,0.3,0.2c0.2,0.3,0.4,0.6,0.4,1.1C173.7,177,172,180.9,172,180.9z M89.6,148.4h37.8h1.3h37.8l0,0h0l-4,4h-33.8
			h-1.3H93.7L89.6,148.4L89.6,148.4L89.6,148.4z M127.4,140.9h1.3h37.8l-4,4h-33.8h-1.3H93.7l-4-4H127.4z M89.6,133.5h37.8h1.3h37.8
			l-4,4h-33.8h-1.3H93.7L89.6,133.5z M127.4,155.8h1.3h37.8l-4,4h-33.8h-1.3H93.7l-4-4H127.4z M128.7,112.7c-0.4,0-0.8,0-1.3,0
			c-12.8,0-43.8,0-52.2,0c-10.7,0-10.7-9.5-10.7-9.5s1.5-35,1.7-37.7c0.2-2.7,2.6-3,2.6-3h58.7h1.3h58.7c0,0,2.4,0.4,2.6,3
			c0.2,2.7,1.7,37.7,1.7,37.7s0,9.5-10.7,9.5C172.5,112.7,141.5,112.7,128.7,112.7z M193.6,179.5v18.9c0,1.3-1,2.3-2.3,2.3h-5.1
			h-2.1h-7.2c-1.3,0-2.3-1-2.3-2.3l1.3-4.2l6-19.3c0,0,0,0,0-0.1c0.3-0.9,1.2-1.6,2.2-1.6h6.9h0.3c1.3,0,2.3,1,2.3,2.3V179.5z
			 M215.3,232.2l-11.2-27.1c0.8-2.9,0.8-5.2,0.8-5.7v-34.6l27.8,67.4H215.3z"/>
	</g>
</g>
</svg>
