<?xml version="1.0" encoding="utf-8"?>
<!-- Generator: Adobe Illustrator 23.0.3, SVG Export Plug-In . SVG Version: 6.00 Build 0)  -->
<svg version="1.1" id="Layer_1" xmlns="http://www.w3.org/2000/svg" xmlns:xlink="http://www.w3.org/1999/xlink" x="0px" y="0px"
	 viewBox="0 0 192 192" style="enable-background:new 0 0 192 192;" xml:space="preserve">
<style type="text/css">
	.st0{opacity:0.2;fill:#00FFFF;}
	.st1{fill:none;stroke:#000000;stroke-width:2;stroke-linecap:round;stroke-linejoin:round;stroke-miterlimit:10;}
	.st2{fill:none;stroke:#000000;stroke-linecap:round;stroke-miterlimit:10;}
	.st3{fill:none;stroke:#000000;stroke-miterlimit:10;}
	.st4{fill:none;stroke:#000000;stroke-linecap:round;stroke-linejoin:round;stroke-miterlimit:10;}
	.st5{fill:none;stroke:#000000;stroke-width:2;stroke-miterlimit:10;}
	.st6{opacity:0.2;fill:#FFFFFF;}
	.st7{fill:#333333;}
	.st8{fill:url(#SVGID_1_);}
	.st9{fill:none;}
	.st10{fill:#4E85BD;}
	.st11{fill:url(#SVGID_2_);}
	.st12{fill:#997D4E;}
	.st13{fill:url(#SVGID_3_);}
	.st14{fill:#4EBFBB;}
	.st15{fill:url(#SVGID_4_);}
	.st16{fill:#CE7676;}
	.st17{fill:#FFFFFF;}
	.st18{fill:#F0AF03;}
	.st19{fill:url(#SVGID_5_);}
	.st20{fill:url(#SVGID_6_);}
	.st21{fill:url(#SVGID_7_);}
	.st22{fill:#0B2972;}
	.st23{fill:url(#SVGID_8_);}
	.st24{fill:#DB4912;}
	.st25{fill:url(#SVGID_9_);}
	.st26{fill:url(#SVGID_10_);}
	.st27{fill:url(#SVGID_11_);}
	.st28{fill:url(#SVGID_12_);}
	.st29{fill:url(#SVGID_13_);}
	.st30{fill:url(#SVGID_14_);}
	.st31{fill:url(#SVGID_15_);}
	.st32{fill:url(#SVGID_16_);}
	.st33{fill:url(#SVGID_17_);}
	.st34{fill:url(#SVGID_18_);}
	.st35{opacity:0.2;fill:#0B2972;}
	.st36{opacity:0.3;fill:#818286;}
	.st37{fill:#818286;}
	.st38{opacity:0.3;fill:#0B2972;}
	.st39{opacity:0.3;fill:#997D4E;}
	.st40{opacity:0.3;fill:#BCBDC1;}
	.st41{fill:#BCBDC1;}
	.st42{opacity:0.3;fill:#DCDDDF;}
	.st43{fill:#DCDDDF;}
	.st44{opacity:0.3;fill:#10184A;}
	.st45{fill:#10184A;}
	.st46{opacity:0.3;fill:#63522F;}
	.st47{fill:#63522F;}
</style>
<circle class="st36" cx="96" cy="96" r="96"/>
<path class="st17" d="M142.1,93.4l-1.6-31.3h1.8v-4.6h-2l-0.4-7.5h2.4v-4.6h-13.9V50h2.4l-0.4,7.5h-2v4.6h1.8l-1.6,31.3H124
	l-1.6-31.3h1.8v-4.6h-2l-0.4-7.5h2.4v-4.6h-13.9V50h2.4l-0.4,7.5h-2v4.6h1.8l-1.6,31.3h-3.2V84v-1.9V69.5l-17,10.2V69.5l-17,10.2
	V69.5l-26.6,16v61.1H61V127h31.8v19.6h14.3h38.2V93.4H142.1z M60.1,110.5h-6.4v-5.6h6.4V110.5z M60.1,99h-6.4v-5.6h6.4V99z
	 M70.5,110.5H64v-5.6h6.4V110.5z M70.5,99H64v-5.6h6.4V99z M89.8,110.5h-6.4v-5.6h6.4V110.5z M89.8,99h-6.4v-5.6h6.4V99z
	 M100.2,110.5h-6.4v-5.6h6.4V110.5z M100.2,99h-6.4v-5.6h6.4V99z M140.7,116.1h-29v-4.7h29V116.1z M140.7,105.6h-29v-4.7h29V105.6z"
	/>
<circle class="st37" cx="96" cy="96" r="72.6"/>
<path class="st17" d="M139.8,93.5l-1.6-29.8h1.7v-4.3H138l-0.4-7.1h2.3v-4.3h-13.2v4.3h2.3l-0.4,7.1h-1.9v4.3h1.7l-1.6,29.8h-4.3
	L121,63.8h1.7v-4.3h-1.9l-0.4-7.1h2.3v-4.3h-13.2v4.3h2.3l-0.4,7.1h-1.9v4.3h1.7l-1.6,29.8h-3.1v-8.9v-1.8V70.9l-16.1,9.7v-9.7
	l-16.1,9.7v-9.7L49.1,86.1v58h13.6v-18.6H93v18.6h13.6h36.3V93.5H139.8z M61.9,109.8h-6.1v-5.3h6.1V109.8z M61.9,98.8h-6.1v-5.3h6.1
	V98.8z M71.8,109.8h-6.1v-5.3h6.1V109.8z M71.8,98.8h-6.1v-5.3h6.1V98.8z M90.1,109.8H84v-5.3h6.1V109.8z M90.1,98.8H84v-5.3h6.1
	V98.8z M100,109.8h-6.1v-5.3h6.1V109.8z M100,98.8h-6.1v-5.3h6.1V98.8z M138.5,115.1H111v-4.5h27.5V115.1z M138.5,105.1H111v-4.5
	h27.5V105.1z"/>
</svg>
