<?xml version="1.0" encoding="utf-8"?>
<!-- Generator: Adobe Illustrator 23.0.3, SVG Export Plug-In . SVG Version: 6.00 Build 0)  -->
<svg version="1.1" id="Layer_1" xmlns="http://www.w3.org/2000/svg" xmlns:xlink="http://www.w3.org/1999/xlink" x="0px" y="0px"
	 viewBox="0 0 192 192" style="enable-background:new 0 0 192 192;" xml:space="preserve">
<style type="text/css">
	.st0{opacity:0.2;fill:#00FFFF;}
	.st1{fill:none;stroke:#000000;stroke-width:2;stroke-linecap:round;stroke-linejoin:round;stroke-miterlimit:10;}
	.st2{fill:none;stroke:#000000;stroke-linecap:round;stroke-miterlimit:10;}
	.st3{fill:none;stroke:#000000;stroke-miterlimit:10;}
	.st4{fill:none;stroke:#000000;stroke-linecap:round;stroke-linejoin:round;stroke-miterlimit:10;}
	.st5{fill:none;stroke:#000000;stroke-width:2;stroke-miterlimit:10;}
	.st6{opacity:0.2;fill:#FFFFFF;}
	.st7{fill:#333333;}
	.st8{fill:url(#SVGID_1_);}
	.st9{fill:none;}
	.st10{fill:#4E85BD;}
	.st11{fill:url(#SVGID_2_);}
	.st12{fill:#997D4E;}
	.st13{fill:url(#SVGID_3_);}
	.st14{fill:#4EBFBB;}
	.st15{fill:url(#SVGID_4_);}
	.st16{fill:#CE7676;}
	.st17{fill:#FFFFFF;}
	.st18{fill:#F0AF03;}
	.st19{fill:url(#SVGID_5_);}
	.st20{fill:url(#SVGID_6_);}
	.st21{fill:url(#SVGID_7_);}
	.st22{fill:#0B2972;}
	.st23{fill:url(#SVGID_8_);}
	.st24{fill:#DB4912;}
	.st25{fill:url(#SVGID_9_);}
	.st26{fill:url(#SVGID_10_);}
	.st27{fill:url(#SVGID_11_);}
	.st28{fill:url(#SVGID_12_);}
	.st29{fill:url(#SVGID_13_);}
	.st30{fill:url(#SVGID_14_);}
	.st31{fill:url(#SVGID_15_);}
	.st32{fill:url(#SVGID_16_);}
	.st33{fill:url(#SVGID_17_);}
	.st34{fill:url(#SVGID_18_);}
	.st35{opacity:0.2;fill:#0B2972;}
	.st36{opacity:0.3;fill:#818286;}
	.st37{fill:#818286;}
	.st38{opacity:0.3;fill:#0B2972;}
	.st39{opacity:0.3;fill:#997D4E;}
	.st40{opacity:0.3;fill:#BCBDC1;}
	.st41{fill:#BCBDC1;}
	.st42{opacity:0.3;fill:#DCDDDF;}
	.st43{fill:#DCDDDF;}
	.st44{opacity:0.3;fill:#10184A;}
	.st45{fill:#10184A;}
	.st46{opacity:0.3;fill:#63522F;}
	.st47{fill:#63522F;}
	.st48{fill:#E65442;}
</style>
<path class="st48" d="M96,171.5c-8.9-15.1-17.4-28.9-25.3-43.1C62.1,113,53.4,97.5,49,80.2c-6.9-27,10.7-54.2,37.8-58.9
	c29.5-5.1,54.6,13.7,57.4,42.8c0.9,9.2-0.6,17.9-4.1,26.4C128.7,118.7,112.8,144.4,96,171.5z M95.9,87c9.1,0.2,16.9-7.5,17.1-16.7
	c0.1-9.1-7.7-16.9-16.8-16.9c-9,0-16.6,7.4-16.8,16.5C79.1,78.9,86.7,86.8,95.9,87z"/>
<path class="st17" d="M95.3,87c-9.2-0.2-16.8-8.1-16.6-17.2c0.3-9,7.8-16.5,16.8-16.5c9.2,0,17,7.8,16.8,16.9
	C112.3,79.5,104.5,87.2,95.3,87z"/>
</svg>
