<?xml version="1.0" encoding="utf-8"?>
<!-- Generator: Adobe Illustrator 23.0.2, SVG Export Plug-In . SVG Version: 6.00 Build 0)  -->
<svg version="1.1" id="Layer_1" xmlns="http://www.w3.org/2000/svg" xmlns:xlink="http://www.w3.org/1999/xlink" x="0px" y="0px"
	 viewBox="0 0 256 256" style="enable-background:new 0 0 256 256;" xml:space="preserve">
<style type="text/css">
	.st0{fill:url(#SVGID_1_);}
	.st1{fill:#997D4E;}
</style>
<g>
	<linearGradient id="SVGID_1_" gradientUnits="userSpaceOnUse" x1="140.3395" y1="220.2052" x2="140.3395" y2="15.9632">
		<stop  offset="0" style="stop-color:#A6A6A6"/>
		<stop  offset="1" style="stop-color:#FFFFFF"/>
	</linearGradient>
	<path class="st0" d="M179.2,16c-15.2,0-29,5.6-39.6,14.9c-1.8,1.6-3.4,3.3-5.1,5.1h-5.9h-1.3h-47c0,0-9.7,0.2-12.8,8.8
		c-0.8,2.2-1.7,7.3-2.7,14.7l-12,4.9c-0.1,0-0.2,0-0.3,0h-9.1c-1.3,0-2.3,1-2.3,2.3v24.6c0,1.3,1,2.3,2.3,2.3h8.9l9,3.8
		c-1.2,19-1.9,41-1.2,62.5h-3.2v39.7c0,0,0,6,3.5,9.5h0.2v7.9c0,1.8,1.5,3.2,3.2,3.2h17.9c1.8,0,3.2-1.5,3.2-3.2v-7.9h42.4h1.3H171
		v7.9c0,1.8,1.5,3.2,3.2,3.2h17.9c1.8,0,3.2-1.5,3.2-3.2v-7.9h0.2c3.5-3.5,3.5-9.5,3.5-9.5v-39.7h-3.2c0.3-8.5,0.3-17.1,0.2-25.6
		c0.4-0.1,0.7-0.2,1.1-0.3c0.3-0.1,0.6-0.3,0.9-0.4c5.3-1.8,10.3-4.2,14.9-7.2c3.2-2.2,6.2-4.6,8.9-7.4c2.7-2.7,5.2-5.7,7.4-8.9
		c1-1.4,1.9-2.9,2.7-4.5c0.1-0.2,0.2-0.3,0.3-0.5c1.9-3.4,3.4-7,4.6-10.8c1.8-5.7,2.7-11.7,2.7-18C239.5,43,212.5,16,179.2,16z
		 M162.4,152.4h-33.8h-1.3H93.6l-4-4h37.8h1.3h37.8L162.4,152.4z M166.4,155.8l-4,4h-33.8h-1.3H93.6l-4-4h37.8h1.3H166.4z
		 M162.4,145h-33.8h-1.3H93.6l-4-4h37.8h1.3h37.8L162.4,145z M160,133.5c0.4,0.1,0.8,0.3,1.2,0.5c1.2,0.4,2.5,0.7,3.7,1l-2.5,2.5
		h-33.8h-1.3H93.6l-4-4h37.8h1.3H160z M61.5,94.4l-6.7-2.9c0-0.1,0-0.2,0-0.4V66.5c0,0,0-0.1,0-0.1l9.7-3.9
		C63.4,71.1,62.4,82,61.5,94.4z M79.2,200.8H72h-2.1h-5.1c-1.3,0-2.3-1-2.3-2.3v-22.8c0-1.3,1-2.3,2.3-2.3H72c1,0,1.9,0.7,2.2,1.6
		c0,0,0,0,0,0.1l6,19.3l1.3,4.2C81.5,199.7,80.5,200.8,79.2,200.8z M75.2,112.7c-10.7,0-10.7-9.5-10.7-9.5s1.5-35,1.7-37.7
		c0.2-2.7,2.6-3,2.6-3h51.8c-1.1,4.4-1.7,9-1.7,13.8c0,6.3,1,12.3,2.7,18c1.2,3.8,2.7,7.4,4.6,10.8c0.1,0.2,0.2,0.3,0.3,0.5
		c0.8,1.5,1.7,3,2.7,4.5c0.6,0.9,1.3,1.7,1.9,2.6c-0.8,0-1.7,0-2.4,0c-0.4,0-0.8,0-1.3,0C114.5,112.7,83.6,112.7,75.2,112.7z
		 M166.9,197.1c0,0-0.3,1.4-2.4,1.4c-1.5,0-23.5,0-35.9,0c-0.4,0-0.8,0-1.3,0c-12.4,0-34.4,0-35.9,0c-2,0-2.4-1.4-2.4-1.4
		s-1.7-3.9-1.7-6.5c0-2.1,2.5-2,2.5-2h37.4h1.3H166c0,0,2.5-0.1,2.5,2C168.5,193.2,166.9,197.1,166.9,197.1z M172,180.9
		c0,0-0.3,1.4-2.4,1.4c-1.7,0-31,0-40.9,0c-0.4,0-0.8,0-1.3,0c-9.9,0-39.2,0-40.9,0c-2,0-2.4-1.4-2.4-1.4s-1.7-3.9-1.7-6.5
		c0-2.1,2.5-2,2.5-2h42.5h1.3h42.5c0,0,2.5-0.1,2.5,2C173.6,177,172,180.9,172,180.9z M193.5,198.5c0,1.3-1,2.3-2.3,2.3h-5.1H184
		h-7.2c-1.3,0-2.3-1-2.3-2.3l1.3-4.2l6-19.3c0,0,0,0,0-0.1c0.3-0.9,1.2-1.6,2.2-1.6h7.1c1.3,0,2.3,1,2.3,2.3V198.5z"/>
	<path class="st1" d="M179.2,22.7c-13.5,0-25.7,5-35.1,13.2c-8,6.9-13.8,16.1-16.6,26.6c-1.2,4.4-1.9,9-1.9,13.8
		c0,5.6,0.8,10.9,2.4,15.9c1,3.4,2.4,6.6,4.1,9.6c0.1,0.2,0.2,0.3,0.3,0.5c0.8,1.4,1.5,2.7,2.4,4c1.5,2.3,3.3,4.4,5.1,6.4
		c0.5,0.5,0.9,1.1,1.4,1.6c2.4,2.4,5.1,4.6,7.9,6.5c4.3,2.9,9,5.2,14,6.7c5,1.6,10.4,2.4,15.9,2.4s10.9-0.8,15.9-2.4
		c0.3-0.1,0.5-0.2,0.8-0.3c4.7-1.6,9.2-3.7,13.2-6.4c2.9-1.9,5.5-4.1,7.9-6.5c2.4-2.4,4.6-5.1,6.5-7.9c0.9-1.3,1.7-2.6,2.4-4
		c0.1-0.2,0.2-0.3,0.3-0.5c1.7-3,3-6.3,4.1-9.6c1.6-5,2.4-10.4,2.4-15.9C232.8,46.7,208.8,22.7,179.2,22.7z M190.6,81.5l-19.7,19.7
		l-20.7-20.7l8.2-8.2l2.1,2.1l10.4,10.4l19-19l1.8-1.8l0,0l0.9-0.9l2.1-2.1l5.2-5.2l4.1,4.1l0,0l4.1,4.1l-0.4,0.4l-6.6,6.6l-7.9,7.9
		L190.6,81.5z"/>
</g>
</svg>
