<?xml version="1.0" encoding="utf-8"?>
<!-- Generator: Adobe Illustrator 23.0.3, SVG Export Plug-In . SVG Version: 6.00 Build 0)  -->
<svg version="1.1" id="Layer_1" xmlns="http://www.w3.org/2000/svg" xmlns:xlink="http://www.w3.org/1999/xlink" x="0px" y="0px"
	 viewBox="0 0 192 192" style="enable-background:new 0 0 192 192;" xml:space="preserve">
<style type="text/css">
	.st0{opacity:0.2;fill:#00FFFF;}
	.st1{fill:none;stroke:#000000;stroke-width:2;stroke-linecap:round;stroke-linejoin:round;stroke-miterlimit:10;}
	.st2{fill:none;stroke:#000000;stroke-linecap:round;stroke-miterlimit:10;}
	.st3{fill:none;stroke:#000000;stroke-miterlimit:10;}
	.st4{fill:none;stroke:#000000;stroke-linecap:round;stroke-linejoin:round;stroke-miterlimit:10;}
	.st5{fill:none;stroke:#000000;stroke-width:2;stroke-miterlimit:10;}
	.st6{opacity:0.2;fill:#FFFFFF;}
	.st7{fill:#333333;}
	.st8{fill:url(#SVGID_1_);}
	.st9{fill:none;}
	.st10{fill:#4E85BD;}
	.st11{fill:url(#SVGID_2_);}
	.st12{fill:#997D4E;}
	.st13{fill:url(#SVGID_3_);}
	.st14{fill:#4EBFBB;}
	.st15{fill:url(#SVGID_4_);}
	.st16{fill:#CE7676;}
	.st17{fill:#FFFFFF;}
	.st18{fill:#F0AF03;}
	.st19{fill:url(#SVGID_5_);}
	.st20{fill:url(#SVGID_6_);}
	.st21{fill:url(#SVGID_7_);}
	.st22{fill:#0B2972;}
	.st23{fill:url(#SVGID_8_);}
	.st24{fill:#DB4912;}
	.st25{fill:url(#SVGID_9_);}
	.st26{fill:url(#SVGID_10_);}
	.st27{fill:url(#SVGID_11_);}
	.st28{fill:url(#SVGID_12_);}
	.st29{fill:url(#SVGID_13_);}
	.st30{fill:url(#SVGID_14_);}
	.st31{fill:url(#SVGID_15_);}
	.st32{fill:url(#SVGID_16_);}
	.st33{fill:url(#SVGID_17_);}
	.st34{fill:url(#SVGID_18_);}
	.st35{opacity:0.2;fill:#0B2972;}
	.st36{opacity:0.3;fill:#818286;}
	.st37{fill:#818286;}
	.st38{opacity:0.3;fill:#0B2972;}
	.st39{opacity:0.3;fill:#997D4E;}
	.st40{opacity:0.3;fill:#BCBDC1;}
	.st41{fill:#BCBDC1;}
	.st42{opacity:0.3;fill:#DCDDDF;}
	.st43{fill:#DCDDDF;}
	.st44{opacity:0.3;fill:#10184A;}
	.st45{fill:#10184A;}
	.st46{opacity:0.3;fill:#63522F;}
	.st47{fill:#63522F;}
</style>
<circle class="st44" cx="96" cy="96" r="96"/>
<circle class="st45" cx="96" cy="96" r="72.6"/>
<path class="st17" d="M141.7,61.5h-4.9c-0.1,0-0.1,0-0.2,0l-6.5-2.6c-0.5-4-1-6.7-1.5-7.9c-1.6-4.6-6.9-4.8-6.9-4.8H96.3h-0.7H70.2
	c0,0-5.3,0.1-6.9,4.8c-0.4,1.2-0.9,4-1.5,7.9l-6.5,2.6c-0.1,0-0.1,0-0.2,0h-4.9c-0.7,0-1.2,0.6-1.2,1.2V76c0,0.7,0.6,1.2,1.2,1.2
	h4.8l4.9,2.1c-0.7,10.3-1,22.2-0.6,33.8h-1.8v21.5c0,0,0,3.3,1.9,5.1h0.1v4.3c0,1,0.8,1.7,1.7,1.7H71c1,0,1.7-0.8,1.7-1.7v-4.3h22.9
	h0.7h22.9v4.3c0,1,0.8,1.7,1.7,1.7h9.7c1,0,1.7-0.8,1.7-1.7v-4.3h0.1c1.9-1.9,1.9-5.1,1.9-5.1v-21.5h-1.8c0.4-11.6,0-23.5-0.6-33.8
	l4.9-2.1h4.8c0.7,0,1.2-0.6,1.2-1.2V62.7C143,62,142.4,61.5,141.7,61.5z M60.1,77.8l-3.6-1.5c0-0.1,0-0.1,0-0.2V62.7c0,0,0,0,0-0.1
	l5.2-2.1C61.1,65.2,60.5,71.1,60.1,77.8z M70.9,134.1c0,0.7-0.6,1.2-1.2,1.2h-3.9h-1.1h-2.7c-0.7,0-1.2-0.6-1.2-1.2v-12.3
	c0-0.7,0.6-1.2,1.2-1.2h3.9c0.5,0,1,0.4,1.2,0.8c0,0,0,0,0,0l3.2,10.4L70.9,134.1L70.9,134.1z M117,133.3c0,0-0.2,0.8-1.3,0.8
	c-0.8,0-12.7,0-19.4,0c-0.2,0-0.5,0-0.7,0c-6.7,0-18.6,0-19.4,0c-1.1,0-1.3-0.8-1.3-0.8s-0.9-2.1-0.9-3.5c0-1.1,1.3-1.1,1.3-1.1
	h20.2h0.7h20.2c0,0,1.3-0.1,1.3,1.1C117.9,131.2,117,133.3,117,133.3z M119.8,124.6c0,0-0.2,0.8-1.3,0.8c-0.9,0-16.8,0-22.1,0
	c-0.2,0-0.4,0-0.7,0c-5.4,0-21.2,0-22.1,0c-1.1,0-1.3-0.8-1.3-0.8s-0.9-2.1-0.9-3.5c0-1.1,1.3-1.1,1.3-1.1h23h0.7h23
	c0,0,1.3-0.1,1.3,1.1C120.7,122.5,119.8,124.6,119.8,124.6z M95.7,103h0.7h20.4l-2.2,2.2H96.3h-0.7H77.4l-2.2-2.2H95.7z M75.2,99
	h20.4h0.7h20.4l-2.2,2.2H96.3h-0.7H77.4L75.2,99z M95.7,107h0.7h20.4l-2.2,2.2H96.3h-0.7H77.4l-2.2-2.2H95.7z M95.7,111h0.7h20.4
	l-2.2,2.2H96.3h-0.7H77.4l-2.2-2.2H95.7z M96.3,87.7c-0.2,0-0.5,0-0.7,0c-6.9,0-23.7,0-28.2,0c-5.8,0-5.8-5.1-5.8-5.1
	s0.8-18.9,0.9-20.4c0.1-1.4,1.4-1.6,1.4-1.6h31.7h0.7h31.7c0,0,1.3,0.2,1.4,1.6c0.1,1.4,0.9,20.4,0.9,20.4s0,5.1-5.8,5.1
	C120,87.7,103.3,87.7,96.3,87.7z M131.4,134.1c0,0.7-0.6,1.2-1.2,1.2h-2.7h-1.1h-3.9c-0.7,0-1.2-0.6-1.2-1.2v0l0.7-2.3l3.2-10.4
	c0,0,0,0,0,0c0.2-0.5,0.6-0.8,1.2-0.8h3.9c0.7,0,1.2,0.6,1.2,1.2V134.1z M131.9,77.8c-0.4-6.7-1-12.6-1.6-17.2l5.2,2.1
	c0,0,0,0,0,0.1V76c0,0.1,0,0.1,0,0.2L131.9,77.8z"/>
</svg>
