<?xml version="1.0" encoding="utf-8"?>
<!-- Generator: Adobe Illustrator 23.0.2, SVG Export Plug-In . SVG Version: 6.00 Build 0)  -->
<svg version="1.1" id="Layer_1" xmlns="http://www.w3.org/2000/svg" xmlns:xlink="http://www.w3.org/1999/xlink" x="0px" y="0px"
	 viewBox="0 0 256 256" style="enable-background:new 0 0 256 256;" xml:space="preserve">
<style type="text/css">
	.st0{fill:#FFFFFF;}
</style>
<g>
	<polygon class="st0" points="80.5,169 43,131.5 80.5,94.1 87.7,101.3 57.4,131.5 87.7,161.8 	"/>
	<rect x="50.2" y="126.4" class="st0" width="168.5" height="10.2"/>
</g>
<g>
	<path class="st0" d="M138.2,76.7c0,6.9-1.7,12.3-5.2,16c-3.4,3.7-8.4,5.6-14.8,5.6c-6.4,0-11.3-1.9-14.8-5.6
		c-3.4-3.7-5.2-9.1-5.2-16s1.7-12.3,5.2-16c3.4-3.7,8.4-5.5,14.8-5.5c6.4,0,11.4,1.9,14.8,5.6C136.5,64.4,138.2,69.7,138.2,76.7z
		 M107.6,76.7c0,4.7,0.9,8.2,2.7,10.6c1.8,2.4,4.4,3.5,8,3.5c7.1,0,10.6-4.7,10.6-14.1c0-9.4-3.5-14.2-10.6-14.2
		c-3.5,0-6.2,1.2-8,3.6C108.5,68.4,107.6,72,107.6,76.7z"/>
	<path class="st0" d="M181,55.8v27.1c0,3.1-0.7,5.8-2.1,8.1c-1.4,2.3-3.4,4.1-6,5.4c-2.6,1.2-5.7,1.9-9.3,1.9
		c-5.4,0-9.6-1.4-12.5-4.1c-3-2.8-4.5-6.5-4.5-11.3v-27h8.9v25.6c0,3.2,0.6,5.6,1.9,7.1c1.3,1.5,3.4,2.3,6.4,2.3
		c2.9,0,5-0.8,6.3-2.3c1.3-1.5,2-3.9,2-7.1V55.8H181z"/>
	<path class="st0" d="M207.4,97.6h-8.9V63.2h-11.4v-7.4h31.6v7.4h-11.4V97.6z"/>
</g>
</svg>
