<?xml version="1.0" encoding="utf-8"?>
<!-- Generator: Adobe Illustrator 23.0.2, SVG Export Plug-In . SVG Version: 6.00 Build 0)  -->
<svg version="1.1" id="Layer_1" xmlns="http://www.w3.org/2000/svg" xmlns:xlink="http://www.w3.org/1999/xlink" x="0px" y="0px"
	 viewBox="0 0 256 256" style="enable-background:new 0 0 256 256;" xml:space="preserve">
<style type="text/css">
	.st0{fill:url(#SVGID_1_);}
</style>
<linearGradient id="SVGID_1_" gradientUnits="userSpaceOnUse" x1="128" y1="220.1469" x2="128" y2="35.8531">
	<stop  offset="0" style="stop-color:#A6A6A6"/>
	<stop  offset="1" style="stop-color:#FFFFFF"/>
</linearGradient>
<path class="st0" d="M212.6,64.2h-9.1c-0.1,0-0.2,0-0.3,0l-12-4.9c-1-7.3-1.9-12.5-2.7-14.7c-3-8.6-12.8-8.8-12.8-8.8h-47h-1.3h-47
	c0,0-9.7,0.2-12.8,8.8c-0.8,2.2-1.7,7.3-2.7,14.7l-12,4.9c-0.1,0-0.2,0-0.3,0h-9.1c-1.3,0-2.3,1-2.3,2.3v24.6c0,1.3,1,2.3,2.3,2.3
	h8.9l9,3.8c-1.2,19-1.9,41-1.2,62.5h-3.2v39.7c0,0,0,6,3.5,9.5h0.2v7.9c0,1.8,1.5,3.2,3.2,3.2h17.9c1.8,0,3.2-1.5,3.2-3.2V209h42.4
	h1.3H171v7.9c0,1.8,1.5,3.2,3.2,3.2h17.9c1.8,0,3.2-1.5,3.2-3.2V209h0.2c3.5-3.5,3.5-9.5,3.5-9.5v-39.7h-3.2
	c0.7-21.5,0-43.5-1.2-62.5l9-3.8h8.9c1.3,0,2.3-1,2.3-2.3V66.5C214.9,65.2,213.8,64.2,212.6,64.2z M61.5,94.3l-6.7-2.9
	c0-0.1,0-0.2,0-0.4V66.5c0,0,0-0.1,0-0.1l9.7-3.9C63.4,71,62.4,82,61.5,94.3z M81.5,198.4c0,1.3-1,2.3-2.3,2.3H72h-2.1h-5.1
	c-1.3,0-2.3-1-2.3-2.3v-22.8c0-1.3,1-2.3,2.3-2.3H72c1,0,1.9,0.7,2.2,1.6c0,0,0,0,0,0.1l6,19.3L81.5,198.4L81.5,198.4z M166.9,197
	c0,0-0.3,1.4-2.4,1.4c-1.5,0-23.5,0-35.9,0c-0.4,0-0.8,0-1.3,0c-12.4,0-34.4,0-35.9,0c-2,0-2.4-1.4-2.4-1.4s-1.7-3.9-1.7-6.5
	c0-2.1,2.5-2,2.5-2h37.4h1.3H166c0,0,2.5-0.1,2.5,2C168.5,193.1,166.9,197,166.9,197z M172,180.9c0,0-0.3,1.4-2.4,1.4
	c-1.7,0-31,0-40.9,0c-0.4,0-0.8,0-1.3,0c-9.9,0-39.2,0-40.9,0c-2,0-2.4-1.4-2.4-1.4s-1.7-3.9-1.7-6.5c0-2.1,2.5-2,2.5-2h42.5h1.3
	h42.5c0,0,2.5-0.1,2.5,2C173.6,177,172,180.9,172,180.9z M127.4,140.9h1.3h37.8l-4,4h-33.8h-1.3H93.6l-4-4H127.4z M89.6,133.5h37.8
	h1.3h37.8l-4,4h-33.8h-1.3H93.6L89.6,133.5z M127.4,148.3h1.3h37.8l-4,4h-33.8h-1.3H93.6l-4-4H127.4z M127.4,155.8h1.3h37.8l-4,4
	h-33.8h-1.3H93.6l-4-4H127.4z M128.6,112.6c-0.4,0-0.8,0-1.3,0c-12.8,0-43.8,0-52.2,0c-10.7,0-10.7-9.5-10.7-9.5s1.5-35,1.7-37.7
	c0.2-2.7,2.6-3,2.6-3h58.7h1.3h58.7c0,0,2.4,0.4,2.6,3c0.2,2.7,1.7,37.7,1.7,37.7s0,9.5-10.7,9.5
	C172.4,112.6,141.5,112.6,128.6,112.6z M193.5,198.4c0,1.3-1,2.3-2.3,2.3h-5.1H184h-7.2c-1.3,0-2.3-1-2.3-2.3v0l1.3-4.2l6-19.3
	c0,0,0,0,0-0.1c0.3-0.9,1.2-1.6,2.2-1.6h7.1c1.3,0,2.3,1,2.3,2.3V198.4z M194.5,94.3c-0.8-12.3-1.9-23.3-3-31.9l9.7,3.9
	c0,0,0,0.1,0,0.1v24.6c0,0.1,0,0.2,0,0.4L194.5,94.3z"/>
</svg>
