<?xml version="1.0" encoding="utf-8"?>
<!-- Generator: Adobe Illustrator 23.0.2, SVG Export Plug-In . SVG Version: 6.00 Build 0)  -->
<svg version="1.1" id="Layer_1" xmlns="http://www.w3.org/2000/svg" xmlns:xlink="http://www.w3.org/1999/xlink" x="0px" y="0px"
	 viewBox="0 0 597.8 208.4" style="enable-background:new 0 0 597.8 208.4;" xml:space="preserve">
<style type="text/css">
	.st0{fill:#FFFFFF;}
</style>
<g>
	<path class="st0" d="M0.9,180.6l0.6-3.9H24l-0.6,3.9H14l-4.4,27.8h-4l4.4-27.8H0.9z"/>
	<path class="st0" d="M58.7,176.7c2.2,0,3.8,0.8,5,2.3c0.9,1.2,1.3,2.9,1.3,5.1c0,3.1-0.5,5.7-1.6,7.7c-1,2-2.5,3.2-4.5,3.6
		c-0.2,0-0.5,0.1-0.8,0.1l4.5,12.9h-4.4l-4.1-12.6l-7.8-0.6l-2.1,13.1h-4l5-31.7H58.7z M60.2,189c0.3-0.7,0.5-1.6,0.6-2.4
		c0.1-0.9,0.1-1.6,0.1-2.3c0-0.7-0.1-1.4-0.3-2c-0.2-0.7-0.5-1.1-0.9-1.4c-0.4-0.2-1-0.4-1.8-0.4h-9.3L46.8,192H56
		C58,192,59.5,191,60.2,189z"/>
	<path class="st0" d="M82.2,208.4l16.4-31.7h4.2l5.9,31.7h-4.1l-1.6-8.4H90.9l-4.3,8.4H82.2z M92.8,196.3h9.7l-2.5-14.2L92.8,196.3z
		"/>
	<path class="st0" d="M138,177.1c1.3-0.5,3.1-0.7,5.5-0.7c2.3,0,5.5,0.5,9.5,1.4l-0.5,3.1c-3.3-0.4-6.4-0.6-9.2-0.6
		c-0.3,0-0.5,0-0.7,0s-0.4,0-0.6,0c-0.2,0-0.4,0-0.6,0c-0.2,0-0.5,0-0.9,0.1c-0.4,0-0.7,0.1-1,0.3c-0.3,0.1-0.6,0.3-1,0.5
		c-0.4,0.2-0.7,0.4-1,0.8c-0.3,0.3-0.6,0.7-1,1.1c-0.3,0.4-0.7,0.9-0.9,1.6c-0.3,0.6-0.6,1.3-0.8,2.1c-0.5,1.5-1,3.3-1.4,5.4
		c-0.4,2.2-0.5,3.9-0.5,5.3c0,4.8,1.8,7.3,5.4,7.5c0.5,0,1.5,0,2.9,0c1.4,0,4-0.1,7.7-0.4l-0.4,3.2c-2.5,0.7-5.9,1-10.4,1
		c-3.5,0-5.9-1.2-7.3-3.5c-1.2-2-1.8-4.6-1.8-7.8c0-3.2,0.5-6.7,1.6-10.6c1-3.6,2.3-6.1,4.1-7.7C135.6,178.2,136.7,177.6,138,177.1z
		"/>
	<path class="st0" d="M169.7,208.4l5-31.7h3.9l-2.2,13.9h3.4l11.4-13.9h4.9l-12.9,16.1l7.8,15.6h-4.7l-6.8-13.9h-3.7l-2.2,13.9
		H169.7z"/>
	<path class="st0" d="M212.3,208.4l5-31.7h4l-5,31.7H212.3z"/>
	<path class="st0" d="M238.9,208.4l5-31.7h3.9l11.3,24.3l3.9-24.3h4l-5,31.7H258l-11.3-24.2l-3.8,24.2H238.9z"/>
	<path class="st0" d="M299.5,176.4c2.7,0,6,0.4,10.1,1.3l-0.4,3.2c-2.6-0.4-5.9-0.6-10.1-0.7c-1.8,0-3.2,0.3-4.1,1
		c-1.1,0.9-2,2-2.7,3.6c-0.9,2.1-1.5,4.3-1.9,6.8c-0.4,2.5-0.5,4.2-0.5,5.2c0,1,0,1.7,0,2.2c0.1,1.8,0.6,3.2,1.5,4.3
		c0.9,1.1,2.1,1.6,3.6,1.6c0,0,0.1,0,0.1,0c1,0,2.1-0.2,3.4-0.6c1.3-0.4,2.3-0.8,3.1-1.1l1.2-0.6l1.3-7.5h-6.5l0.4-2.6
		c2.4-0.7,5-1,7.8-1c0.9,0,1.9,0,2.9,0.1l-2.7,17.1h-3l-0.6-2.4c-1.1,1-2.7,1.7-4.8,2.3c-2.9,0.8-5.4,0.6-7.3-0.6
		c-2.1-1.2-3.4-3.3-4-6.4c-0.3-1.3-0.4-2.3-0.4-3.1c0-0.7,0-1.5,0-2.4c0-0.8,0.2-2.2,0.5-4c0.3-1.9,0.7-3.6,1.1-5.2
		c0.4-1.6,1-3,1.7-4.4c0.7-1.4,1.5-2.4,2.4-3.2c1.9-1.8,4.5-2.6,7.8-2.6C299.3,176.4,299.4,176.4,299.5,176.4z"/>
	<path class="st0" d="M378.5,180.7l-10.6-0.4c-0.3,0-0.5,0-0.7,0c-1.4,0-2.5,0.2-3.4,0.7c-0.8,0.5-1.4,1.6-1.6,3.4l-0.4,2.5
		c-0.2,1-0.2,1.7-0.1,2.1c0.1,0.4,0.2,0.7,0.3,0.8c0.1,0.2,0.2,0.3,0.4,0.5c0.2,0.1,0.4,0.2,0.5,0.3c0.1,0.1,0.4,0.1,0.6,0.2
		c0.4,0,0.8,0,1.2,0c0.4,0,0.6,0,0.6,0h5.6c1.3,0,2.4,0.2,3.3,0.7c0.9,0.5,1.5,1.1,1.9,1.8c0.5,1.1,0.8,2.1,0.8,3
		c0,0.9-0.1,1.6-0.2,2.1l-0.4,2.9c-0.6,4.5-3.4,6.9-8.4,7.2c-0.5,0-1.3,0-2.5,0s-2.9-0.1-5.1-0.4c-2.2-0.2-3.8-0.5-4.8-0.8l0.5-3.2
		c2.2,0.3,5.8,0.4,10.7,0.4c3.4,0,5.3-1.2,5.7-3.6l0.4-2.6c0.1-0.5,0.2-1,0.2-1.5c0-0.5-0.1-0.9-0.3-1.3c-0.3-0.7-1.3-1.1-2.7-1.1
		h-5.5c-4.6,0-6.8-1.9-6.8-5.8c0-0.6,0.1-1.2,0.2-1.9l0.4-3c0.5-3.2,1.7-5.4,3.6-6.4c1.5-0.8,3.4-1.3,5.6-1.3c1.6,0,3.6,0.1,6,0.4
		c2.5,0.2,4.3,0.5,5.5,0.7L378.5,180.7z"/>
	<path class="st0" d="M400.3,176.7h4.2l5,16.1l10.8-16.1h4.7l-14.1,20.8l-1.7,10.9h-4l1.7-10.9L400.3,176.7z"/>
	<path class="st0" d="M463.8,180.7l-10.6-0.4c-0.3,0-0.5,0-0.7,0c-1.4,0-2.5,0.2-3.4,0.7c-0.8,0.5-1.4,1.6-1.6,3.4l-0.4,2.5
		c-0.2,1-0.2,1.7-0.1,2.1c0.1,0.4,0.2,0.7,0.3,0.8c0.1,0.2,0.2,0.3,0.4,0.5c0.2,0.1,0.4,0.2,0.5,0.3c0.1,0.1,0.4,0.1,0.6,0.2
		c0.4,0,0.8,0,1.2,0c0.4,0,0.6,0,0.6,0h5.6c1.3,0,2.4,0.2,3.3,0.7c0.9,0.5,1.5,1.1,1.9,1.8c0.5,1.1,0.8,2.1,0.8,3
		c0,0.9-0.1,1.6-0.2,2.1l-0.4,2.9c-0.6,4.5-3.4,6.9-8.4,7.2c-0.5,0-1.3,0-2.5,0s-2.9-0.1-5.1-0.4c-2.2-0.2-3.8-0.5-4.8-0.8l0.5-3.2
		c2.2,0.3,5.8,0.4,10.7,0.4c3.4,0,5.3-1.2,5.7-3.6l0.4-2.6c0.1-0.5,0.2-1,0.2-1.5c0-0.5-0.1-0.9-0.3-1.3c-0.3-0.7-1.3-1.1-2.7-1.1
		h-5.5c-4.6,0-6.8-1.9-6.8-5.8c0-0.6,0.1-1.2,0.2-1.9l0.4-3c0.5-3.2,1.7-5.4,3.6-6.4c1.5-0.8,3.4-1.3,5.6-1.3c1.6,0,3.6,0.1,6,0.4
		c2.5,0.2,4.3,0.5,5.5,0.7L463.8,180.7z"/>
	<path class="st0" d="M485,180.6l0.6-3.9h22.4l-0.6,3.9h-9.3l-4.4,27.8h-4l4.4-27.8H485z"/>
	<path class="st0" d="M534,176.7c0.1,0,2.4,0.1,6.7,0.3c4.3,0.2,6.8,0.3,7.3,0.4l-0.5,3.2h-13.3c-1.3,0-2.1,0.5-2.4,1.5
		c-0.1,0.3-0.2,0.6-0.2,0.9l-1.2,7.6l13.7,0.4l-0.5,3.2l-13.8,0.4l-1.3,7.7c-0.1,1.1,0.1,1.8,0.6,2c0.4,0.2,1,0.3,1.7,0.3h12.9
		l-0.6,3.2l-13.3,0.7c-0.1,0-0.4,0-0.8,0s-0.9-0.1-1.5-0.3c-2.1-0.6-3.2-2-3.2-4.3c0-0.4,0-0.8,0.1-1.2l3.2-20.3
		C528.3,178.6,530.4,176.7,534,176.7z"/>
	<path class="st0" d="M564.6,208.4l7.3-31.7h5.3l3.7,25.1l11.4-25.1h5.5l-2.5,31.7h-3.9l2-24.6l-11.3,24.6h-4.3l-3.6-24.6l-5.7,24.6
		H564.6z"/>
</g>
<g id="layer1_1_" transform="translate(-99.681872,-203.77111)">
	<g id="g10293_1_" transform="matrix(0.35277777,0,0,-0.35277777,103.52962,206.14107)">
		<path id="path10295_1_" class="st0" d="M308.2-183.9c-26.3,0-47.6-20.8-47.6-46.5V-330c0-25.6,18.3-43.1,48.7-46.4h144.5
			c30.7,3.3,48.7,20.8,48.7,46.4v75.1H343.7v-48.1H452v-11.8c0-11-9.5-19.6-21.3-20h-99.7c-11.7,0-21.2,9-21.2,20v68.7
			c0,11.1,10.1,20.6,21.9,20.6h170.8v41.5"/>
	</g>
	<g id="g10297_1_" transform="matrix(0.35277777,0,0,-0.35277777,111.34294,207.66012)">
		<path id="path10299_1_" class="st0" d="M951.7-309c0-10.8-10-19.5-22.3-19.5H825.9c-12.3,0-22.3,8.7-22.3,19.5v64.1
			c-0.3,12.5,10.2,22.1,23.4,21.9h102.3c12.4,0,22.3-8.7,22.3-19.5V-309z M952.6-179.9h-150c-31.5-3.2-50.5-20.8-50.5-46.3v-99.2
			c3.2-29,19.6-43.2,51.8-46.3h148.8c34,1.7,50.5,20.7,50.5,46.3v99.2C1003.2-200.6,983.1-183.1,952.6-179.9"/>
	</g>
	<path id="path10301_1_" class="st0" d="M580.5,338.8h18v-67.6h-18V338.8z"/>
	<g id="g10303_1_" transform="matrix(0.35277777,0,0,-0.35277777,114.75324,206.17142)">
		<path id="path10305_1_" class="st0" d="M1232.5-186.4l-84-139.3l-83.8,139.3h-57.9l114.4-190h54.8l114.5,190"/>
	</g>
	<g id="g10307_1_" transform="matrix(0.35277777,0,0,-0.35277777,106.93004,207.88343)">
		<path id="path10309_1_" class="st0" d="M588.3-327.4v146.1h-48.8v-186.8h206.4v40.7"/>
	</g>
	<g id="g10311_1_" transform="matrix(0.35277777,0,0,-0.35277777,118.70647,206.9694)">
		<path id="path10313_1_" class="st0" d="M1558.1-252.1l35-0.1v-0.1c28.2-1.7,47.6-12.2,47.6-46.6v-28.7c0-35.5-19.5-45.2-47.6-46.8
			h-182.4v42.3h167.9c0,0,9.9-1.2,9.6,10.9c0,2.2-0.1,8.5-0.1,10.2c0,11.3-8.9,10.6-8.9,10.6l-127.2,0.2h-5.6
			c-10,0.7-42.5,5-41.6,45.3v26.2c-0.4,35.8,21,46.8,49.1,46.8h181.8v-42h-165.2c0,0-12.7,1.1-12.7-9.4c0-1.5-0.2-8.7-0.2-10.7
			c0-9.5,14.2-8.3,14.2-8.3"/>
	</g>
	<g id="g10315_1_" transform="matrix(0.35277777,0,0,-0.35277777,100.83757,204.4862)">
		<path id="path10317_1_" class="st0" d="M86.5-47.6H27.2V2H-0.7v-127h27.9v52.6h59.3v-52.6h27.9V2H86.5"/>
	</g>
	<g id="g10319_1_" transform="matrix(0.35277777,0,0,-0.35277777,108.27659,204.19515)">
		<path id="path10321_1_" class="st0" d="M699.1-23.7h51.9v-36.9H692v29.6c0.1,1.4-0.2,4.1,1.1,5.6
			C694.4-23.6,696.5-23.7,699.1-23.7 M670.4-6.1c-5.9-6-6.1-14.7-6.3-19.8v-100H692v40.5h59.1v-40.5H779V1.2h-86.8
			C684,1.1,676.2-0.1,670.4-6.1"/>
	</g>
	<g id="g10323_1_" transform="matrix(0.35277777,0,0,-0.35277777,105.62617,203.90376)">
		<path id="path10325_1_" class="st0" d="M480.9,0.3h-87v-127h27.9v102.2H474c2.6-0.1,4.8,0.1,6.1-1.6c1.2-1.6,1-4.2,1.1-5.6v-95
			H509v100c-0.2,5.1-0.4,13.8-6.3,19.8C496.9-0.9,489.2,0.3,480.9,0.3"/>
	</g>
	<g id="g10327_1_" transform="matrix(0.35277777,0,0,-0.35277777,103.98893,205.01853)">
		<path id="path10329_1_" class="st0" d="M346-91.5c-0.1-1.5,0.2-4.1-1.1-5.7c-1.3-1.7-3.5-1.5-6-1.6h-52.3V3.5h-27.8v-127.1h86.9
			c8.3,0,16,1.2,21.8,7.2c5.9,6,6.1,14.7,6.3,19.8v100H346"/>
	</g>
	<g id="g10331_1_" transform="matrix(0.35277777,0,0,-0.35277777,107.26941,205.01853)">
		<path id="path10333_1_" class="st0" d="M616.2-91.5c-0.2-1.5,0.2-4.1-1.1-5.6c-1.3-1.7-3.4-1.6-6-1.6h-52.3v77.4h52.3
			c2.6-0.1,4.7,0.1,6-1.6c1.2-1.6,0.9-4.2,1.1-5.7V-91.5z M643.9-23.5c-0.2,5.1-0.4,13.8-6.2,19.8c-5.8,6-13.6,7.2-21.8,7.2h-87
			v-127h87c8.2,0,16,1.2,21.8,7.2c5.8,6,6,14.7,6.2,19.8"/>
	</g>
	<g id="g10335_1_" transform="matrix(0.35277777,0,0,-0.35277777,102.06524,204.55639)">
		<path id="path10337_1_" class="st0" d="M187.6-53.4L153.8,2.2h-33.1l52-80.1v-46.9h29.8v46.9l51.9,80.1h-33.1"/>
	</g>
	<path id="path10339_1_" class="st0" d="M403.4,203.8H393v44.8h10.5V203.8z"/>
</g>
</svg>
