<?xml version="1.0" encoding="utf-8"?>
<!-- Generator: Adobe Illustrator 23.0.2, SVG Export Plug-In . SVG Version: 6.00 Build 0)  -->
<svg version="1.1" id="Layer_1" xmlns="http://www.w3.org/2000/svg" xmlns:xlink="http://www.w3.org/1999/xlink" x="0px" y="0px"
	 viewBox="0 0 735.7 68.5" style="enable-background:new 0 0 735.7 68.5;" xml:space="preserve">
<style type="text/css">
	.st0{fill:#FFFFFF;}
</style>
<g>
	<g>
		<path class="st0" d="M328.6,49.5l0.4-2.6h15.3l-0.4,2.6h-6.4l-3,19h-2.7l3-19H328.6z"/>
		<path class="st0" d="M368,46.9c1.5,0,2.6,0.5,3.4,1.6c0.6,0.8,0.9,2,0.9,3.5c0,2.1-0.4,3.9-1.1,5.3c-0.7,1.4-1.7,2.2-3.1,2.4
			c-0.2,0-0.3,0-0.5,0.1l3.1,8.8h-3l-2.8-8.6l-5.3-0.4l-1.4,8.9h-2.7l3.4-21.6H368z M369,55.2c0.2-0.5,0.3-1.1,0.4-1.6
			c0.1-0.6,0.1-1.1,0.1-1.6c0-0.5-0.1-0.9-0.2-1.4c-0.1-0.5-0.3-0.8-0.6-0.9c-0.3-0.2-0.7-0.3-1.3-0.3h-6.3l-1.2,7.8h6.2
			C367.5,57.3,368.5,56.6,369,55.2z"/>
		<path class="st0" d="M384,68.5l11.2-21.6h2.9l4,21.6h-2.8l-1.1-5.7h-8.3l-3,5.7H384z M391.2,60.2h6.6l-1.7-9.7L391.2,60.2z"/>
		<path class="st0" d="M422.1,47.1c0.9-0.3,2.1-0.5,3.7-0.5c1.6,0,3.8,0.3,6.5,0.9l-0.3,2.1c-2.2-0.3-4.3-0.4-6.3-0.4
			c-0.2,0-0.4,0-0.5,0s-0.3,0-0.4,0c-0.1,0-0.3,0-0.4,0c-0.1,0-0.3,0-0.6,0.1c-0.3,0-0.5,0.1-0.7,0.2c-0.2,0.1-0.4,0.2-0.7,0.3
			c-0.3,0.1-0.5,0.3-0.7,0.5c-0.2,0.2-0.4,0.5-0.6,0.8c-0.2,0.3-0.4,0.6-0.6,1.1c-0.2,0.4-0.4,0.9-0.6,1.4c-0.4,1-0.7,2.2-0.9,3.7
			c-0.2,1.5-0.4,2.7-0.4,3.6c0,3.2,1.2,5,3.7,5.1c0.4,0,1,0,2,0c1,0,2.7-0.1,5.2-0.3l-0.3,2.2c-1.7,0.5-4,0.7-7.1,0.7
			c-2.4,0-4-0.8-5-2.4c-0.8-1.4-1.2-3.2-1.2-5.3c0-2.2,0.4-4.6,1.1-7.2c0.7-2.4,1.6-4.2,2.8-5.3C420.4,47.9,421.2,47.4,422.1,47.1z"
			/>
		<path class="st0" d="M443.7,68.5l3.4-21.6h2.7l-1.5,9.5h2.3l7.8-9.5h3.3l-8.8,11l5.3,10.6H455l-4.7-9.5h-2.5l-1.5,9.5H443.7z"/>
		<path class="st0" d="M472.7,68.5l3.4-21.6h2.7l-3.4,21.6H472.7z"/>
		<path class="st0" d="M490.9,68.5l3.4-21.6h2.7l7.7,16.6l2.6-16.6h2.7l-3.4,21.6h-2.6l-7.7-16.5l-2.6,16.5H490.9z"/>
		<path class="st0" d="M532.2,46.6c1.8,0,4.1,0.3,6.9,0.9l-0.3,2.2c-1.8-0.3-4-0.4-6.9-0.5c-1.2,0-2.2,0.2-2.8,0.7
			c-0.8,0.6-1.4,1.4-1.9,2.4c-0.6,1.4-1,2.9-1.3,4.7c-0.2,1.7-0.4,2.9-0.4,3.6c0,0.7,0,1.2,0,1.5c0.1,1.2,0.4,2.2,1,2.9
			c0.6,0.7,1.4,1.1,2.5,1.1c0,0,0,0,0.1,0c0.6,0,1.4-0.1,2.3-0.4c0.9-0.3,1.6-0.5,2.1-0.8l0.8-0.4l0.9-5.1h-4.5l0.3-1.8
			c1.6-0.5,3.4-0.7,5.3-0.7c0.6,0,1.3,0,2,0.1l-1.9,11.6h-2l-0.4-1.7c-0.7,0.7-1.8,1.2-3.2,1.6c-2,0.5-3.7,0.4-5-0.4
			c-1.4-0.8-2.3-2.3-2.7-4.4c-0.2-0.9-0.3-1.6-0.3-2.1c0-0.5,0-1,0-1.6c0-0.6,0.1-1.5,0.3-2.8s0.5-2.5,0.8-3.5
			c0.3-1.1,0.7-2.1,1.1-3s1-1.7,1.6-2.2c1.3-1.2,3.1-1.8,5.3-1.8C532.1,46.6,532.1,46.6,532.2,46.6z"/>
		<path class="st0" d="M586.1,49.6l-7.2-0.3c-0.2,0-0.3,0-0.5,0c-1,0-1.7,0.2-2.3,0.5c-0.6,0.3-0.9,1.1-1.1,2.3l-0.3,1.7
			c-0.1,0.7-0.1,1.2-0.1,1.4c0.1,0.3,0.1,0.4,0.2,0.6c0.1,0.1,0.2,0.2,0.3,0.3c0.1,0.1,0.2,0.1,0.3,0.2c0.1,0,0.2,0.1,0.4,0.1
			c0.3,0,0.6,0,0.8,0c0.2,0,0.4,0,0.4,0h3.8c0.9,0,1.6,0.2,2.2,0.5c0.6,0.3,1,0.7,1.3,1.3c0.4,0.8,0.6,1.5,0.6,2.1
			c0,0.6,0,1.1-0.1,1.4l-0.3,2c-0.4,3.1-2.3,4.7-5.7,4.9c-0.3,0-0.9,0-1.7,0c-0.8,0-2-0.1-3.5-0.3c-1.5-0.2-2.6-0.3-3.3-0.5l0.3-2.2
			c1.5,0.2,3.9,0.3,7.3,0.3c2.3,0,3.6-0.8,3.9-2.5l0.3-1.8c0.1-0.3,0.1-0.7,0.1-1c0-0.3-0.1-0.6-0.2-0.9c-0.2-0.5-0.9-0.8-1.9-0.8
			h-3.8c-3.1,0-4.7-1.3-4.7-4c0-0.4,0-0.8,0.1-1.3l0.3-2c0.3-2.2,1.1-3.7,2.4-4.4c1-0.6,2.3-0.9,3.8-0.9c1.1,0,2.4,0.1,4.1,0.3
			c1.7,0.2,2.9,0.3,3.8,0.5L586.1,49.6z"/>
		<path class="st0" d="M600.9,46.9h2.9l3.4,11l7.4-11h3.2l-9.6,14.2l-1.2,7.4h-2.7l1.2-7.4L600.9,46.9z"/>
		<path class="st0" d="M644.3,49.6l-7.2-0.3c-0.2,0-0.3,0-0.5,0c-1,0-1.7,0.2-2.3,0.5c-0.6,0.3-0.9,1.1-1.1,2.3l-0.3,1.7
			c-0.1,0.7-0.1,1.2-0.1,1.4c0.1,0.3,0.1,0.4,0.2,0.6c0.1,0.1,0.2,0.2,0.3,0.3c0.1,0.1,0.2,0.1,0.3,0.2c0.1,0,0.2,0.1,0.4,0.1
			c0.3,0,0.6,0,0.8,0c0.2,0,0.4,0,0.4,0h3.8c0.9,0,1.6,0.2,2.2,0.5c0.6,0.3,1,0.7,1.3,1.3c0.4,0.8,0.6,1.5,0.6,2.1
			c0,0.6,0,1.1-0.1,1.4l-0.3,2c-0.4,3.1-2.3,4.7-5.7,4.9c-0.3,0-0.9,0-1.7,0c-0.8,0-2-0.1-3.5-0.3c-1.5-0.2-2.6-0.3-3.3-0.5l0.3-2.2
			c1.5,0.2,3.9,0.3,7.3,0.3c2.3,0,3.6-0.8,3.9-2.5l0.3-1.8c0.1-0.3,0.1-0.7,0.1-1c0-0.3-0.1-0.6-0.2-0.9c-0.2-0.5-0.9-0.8-1.9-0.8
			h-3.8c-3.1,0-4.7-1.3-4.7-4c0-0.4,0-0.8,0.1-1.3l0.3-2c0.3-2.2,1.1-3.7,2.4-4.4c1-0.6,2.3-0.9,3.8-0.9c1.1,0,2.4,0.1,4.1,0.3
			c1.7,0.2,2.9,0.3,3.8,0.5L644.3,49.6z"/>
		<path class="st0" d="M658.7,49.5l0.4-2.6h15.3l-0.4,2.6h-6.4l-3,19h-2.7l3-19H658.7z"/>
		<path class="st0" d="M692.1,46.9c0.1,0,1.6,0.1,4.6,0.2c3,0.1,4.6,0.2,4.9,0.3l-0.3,2.2h-9.1c-0.9,0-1.4,0.3-1.7,1
			c-0.1,0.2-0.1,0.4-0.1,0.6l-0.8,5.2l9.3,0.3l-0.4,2.2l-9.4,0.3l-0.9,5.2c-0.1,0.7,0,1.2,0.4,1.4c0.3,0.1,0.7,0.2,1.2,0.2h8.8
			l-0.4,2.2l-9.1,0.5c-0.1,0-0.3,0-0.5,0c-0.3,0-0.6-0.1-1-0.2c-1.4-0.4-2.2-1.4-2.2-2.9c0-0.3,0-0.6,0.1-0.8l2.2-13.8
			C688.2,48.2,689.7,46.9,692.1,46.9z"/>
		<path class="st0" d="M713,68.5l5-21.6h3.6l2.5,17.1l7.8-17.1h3.8L734,68.5h-2.7l1.4-16.8L725,68.5H722l-2.5-16.8l-3.9,16.8H713z"
			/>
	</g>
	<g id="layer1_2_" transform="translate(-99.681872,-203.77111)">
		<g id="g10293_2_" transform="matrix(0.35277777,0,0,-0.35277777,103.52962,206.14107)">
			<path id="path10295_2_" class="st0" d="M149.9-90.1c-13.4,0-24.2-10.6-24.2-23.6v-50.6c0-13,9.3-21.9,24.8-23.6h73.4
				c15.6,1.7,24.8,10.6,24.8,23.6v38.1h-80.7v-24.5h55v-6c0-5.6-4.8-10-10.8-10.2h-50.7c-6,0-10.8,4.6-10.8,10.2v34.9
				c0,5.6,5.1,10.5,11.1,10.5h86.8v21.1"/>
		</g>
		<g id="g10297_2_" transform="matrix(0.35277777,0,0,-0.35277777,111.34294,207.66012)">
			<path id="path10299_2_" class="st0" d="M465.9-151.6c0-5.5-5.1-9.9-11.3-9.9H402c-6.3,0-11.3,4.4-11.3,9.9v32.6
				c-0.1,6.4,5.2,11.2,11.9,11.1h52c6.3,0,11.3-4.4,11.3-9.9V-151.6z M466.4-86h-76.2c-16-1.6-25.7-10.6-25.7-23.5v-50.4
				c1.6-14.7,10-22,26.3-23.5h75.6c17.3,0.9,25.7,10.5,25.7,23.5v50.4C492.1-96.5,481.9-87.6,466.4-86"/>
		</g>
		<path id="path10301_2_" class="st0" d="M343.5,272.4h9.2V238h-9.2V272.4z"/>
		<g id="g10303_2_" transform="matrix(0.35277777,0,0,-0.35277777,114.75324,206.17142)">
			<path id="path10305_2_" class="st0" d="M603.9-91.4l-42.7-70.8l-42.6,70.8h-29.4l58.1-96.5h27.8l58.2,96.5"/>
		</g>
		<g id="g10307_2_" transform="matrix(0.35277777,0,0,-0.35277777,106.93004,207.88343)">
			<path id="path10309_2_" class="st0" d="M287.4-160.6v74.2h-24.8v-94.9h104.9v20.7"/>
		</g>
		<g id="g10311_2_" transform="matrix(0.35277777,0,0,-0.35277777,118.70647,206.9694)">
			<path id="path10313_2_" class="st0" d="M763.7-123.6l17.8,0v0c14.4-0.9,24.2-6.2,24.2-23.7v-14.6c0-18-9.9-23-24.2-23.8h-92.7
				v21.5h85.3c0,0,5-0.6,4.9,5.6c0,1.1,0,4.3,0,5.2c0,5.8-4.5,5.4-4.5,5.4l-64.6,0.1H707c-5.1,0.4-21.6,2.6-21.1,23v13.3
				c-0.2,18.2,10.7,23.8,24.9,23.8h92.4v-21.3h-83.9c0,0-6.4,0.6-6.4-4.8c0-0.8-0.1-4.4-0.1-5.4c0-4.8,7.2-4.2,7.2-4.2"/>
		</g>
		<g id="g10315_2_" transform="matrix(0.35277777,0,0,-0.35277777,100.83757,204.4862)">
			<path id="path10317_2_" class="st0" d="M41-23.2H10.9V2H-3.3v-64.5h14.2v26.7H41v-26.7h14.2V2H41"/>
		</g>
		<g id="g10319_2_" transform="matrix(0.35277777,0,0,-0.35277777,108.27659,204.19515)">
			<path id="path10321_2_" class="st0" d="M341.9-11.4h26.4v-18.7h-30v15.1c0.1,0.7-0.1,2.1,0.5,2.9
				C339.5-11.4,340.5-11.5,341.9-11.4 M327.3-2.5c-3-3.1-3.1-7.5-3.2-10v-50.8h14.1v20.6h30v-20.6h14.2V1.2h-44.1
				C334.2,1.2,330.3,0.6,327.3-2.5"/>
		</g>
		<g id="g10323_2_" transform="matrix(0.35277777,0,0,-0.35277777,105.62617,203.90376)">
			<path id="path10325_2_" class="st0" d="M234.7,0.4h-44.2v-64.5h14.2v51.9h26.5c1.3,0,2.4,0,3.1-0.8c0.6-0.8,0.5-2.1,0.5-2.9
				v-48.2H249v50.8c-0.1,2.6-0.2,7-3.2,10.1C242.9-0.3,238.9,0.3,234.7,0.4"/>
		</g>
		<g id="g10327_2_" transform="matrix(0.35277777,0,0,-0.35277777,103.98893,205.01853)">
			<path id="path10329_2_" class="st0" d="M168.5-44.7c-0.1-0.7,0.1-2.1-0.5-2.9c-0.7-0.8-1.8-0.8-3.1-0.8h-26.6V3.5h-14.1V-61h44.2
				c4.2,0,8.2,0.6,11.1,3.7c3,3,3.1,7.5,3.2,10.1V3.5h-14.2"/>
		</g>
		<g id="g10331_2_" transform="matrix(0.35277777,0,0,-0.35277777,107.26941,205.01853)">
			<path id="path10333_2_" class="st0" d="M301.2-44.7c-0.1-0.7,0.1-2.1-0.5-2.9c-0.7-0.9-1.7-0.8-3.1-0.8H271v39.3h26.6
				c1.3,0,2.4,0,3.1-0.8c0.6-0.8,0.5-2.2,0.5-2.9V-44.7z M315.3-10.2c-0.1,2.6-0.2,7-3.1,10.1c-3,3.1-6.9,3.6-11.1,3.7h-44.2V-61
				H301c4.2,0,8.1,0.6,11.1,3.7c3,3.1,3.1,7.5,3.1,10.1"/>
		</g>
		<g id="g10335_2_" transform="matrix(0.35277777,0,0,-0.35277777,102.06524,204.55639)">
			<path id="path10337_2_" class="st0" d="M90.7-26L73.5,2.2H56.7l26.4-40.7v-23.8h15.1v23.8l26.4,40.7h-16.8"/>
		</g>
		<path id="path10339_2_" class="st0" d="M253.5,203.8h-5.3v22.8h5.3V203.8z"/>
	</g>
</g>
</svg>
